<?xml version="1.0" encoding="UTF-8"?>
<svg id="First_floor" data-name="First floor" xmlns="http://www.w3.org/2000/svg" viewBox="0 0 715.64 333.72">
  <defs>
    <style>
      .cls-1 {
        fill: none;
      }

      .cls-1, .cls-2 {
        stroke: #fff;
        stroke-miterlimit: 10;
      }

      .cls-2 {
        fill: #ed254e;
        opacity: .3;
      }
    </style>
  </defs>
  <path class="cls-2" d="M483.31,195.96l-26.37-31.18,173.89-66.73L548.61.59.85,205.31l86.3,99.8,70.18-26.69c60,66.44,160.91,70.77,296.68,22.14l88.08-36.67-58.79-67.94Z"/>
  <path class="cls-1" d="M705.2,160.79c21.01,24.91,7.6,56.7-29.98,71.01-21.25,8.09-45.69,8.86-66.7,3.5l-68.12,25.95-82.21-97.44,172.64-65.75,33.49,39.7c16.76,4.01,31.47,11.89,40.88,23.04Z"/>
  <path class="cls-1" d="M371.49,196.82l7.29-2.78"/>
  <polyline class="cls-1" points="128.46 252.59 151.95 280.43 84.73 306.03 2.51 208.58 69.73 182.98 93.22 210.82"/>
  <polyline class="cls-1" points="385.93 191.32 378.78 194.04 296.57 96.59 548.61 .59 630.83 98.05 427.93 175.32"/>
  <line class="cls-1" x1="461" y1="291.48" x2="404.24" y2="224.21"/>
  <polyline class="cls-1" points="483.64 193.97 540.4 261.24 461 291.48"/>
  <polyline class="cls-1" points="427.93 175.32 458.19 163.8 460.15 166.13"/>
  <line class="cls-1" x1="378.78" y1="194.04" x2="385.93" y2="191.32"/>
  <polyline class="cls-1" points="377.33 234.46 404.24 224.21 461 291.48 380.62 322.1 323.86 254.83 335.32 250.46"/>
  <line class="cls-1" x1="371.49" y1="196.82" x2="378.78" y2="194.04"/>
  <line class="cls-1" x1="151.95" y1="280.43" x2="329.48" y2="212.82"/>
  <path class="cls-1" d="M504,275.1c-.09.03-.17.07-.26.1"/>
  <g>
    <polygon class="cls-1" points="506.81 222.32 510.47 226.67 478.22 238.95 474.55 234.6 506.81 222.32"/>
    <polygon class="cls-1" points="503.14 217.97 506.81 222.32 474.55 234.6 470.89 230.26 503.14 217.97"/>
    <polygon class="cls-1" points="499.47 213.63 503.14 217.97 470.89 230.26 467.22 225.91 499.47 213.63"/>
    <polygon class="cls-1" points="517.8 235.36 521.47 239.7 487.4 249.83 485.55 247.64 517.8 235.36"/>
    <polygon class="cls-1" points="514.14 231.01 517.8 235.36 485.55 247.64 481.89 243.29 514.14 231.01"/>
    <polygon class="cls-1" points="510.47 226.67 514.14 231.01 481.89 243.29 478.22 238.95 510.47 226.67"/>
    <path class="cls-1" d="M519.65,237.54c11.1,13.15,4.08,29.92-15.65,37.56"/>
    <line class="cls-1" x1="487.6" y1="250.58" x2="524.35" y2="246.43"/>
    <line class="cls-1" x1="524.2" y1="256.05" x2="488.55" y2="251.87"/>
    <line class="cls-1" x1="517.25" y1="267.02" x2="489.2" y2="254.15"/>
    <line class="cls-1" x1="489.07" y1="257.8" x2="503.74" y2="275.2"/>
    <path class="cls-1" d="M487.4,249.83s2.81,5.53,1.67,8.38"/>
  </g>
  <g>
    <polygon class="cls-1" points="431.05 251.17 434.72 255.52 466.97 243.23 463.3 238.89 431.05 251.17"/>
    <polygon class="cls-1" points="427.39 246.83 431.05 251.17 463.3 238.89 459.64 234.54 427.39 246.83"/>
    <polygon class="cls-1" points="423.72 242.48 427.39 246.83 459.64 234.54 455.97 230.2 423.72 242.48"/>
    <polygon class="cls-1" points="442.05 264.21 445.72 268.55 476.15 254.11 474.3 251.92 442.05 264.21"/>
    <polygon class="cls-1" points="438.39 259.86 442.05 264.21 474.3 251.92 470.64 247.58 438.39 259.86"/>
    <polygon class="cls-1" points="434.72 255.52 438.39 259.86 470.64 247.58 466.97 243.23 434.72 255.52"/>
    <path class="cls-1" d="M443.9,266.4c11.1,13.15,36.12,17.72,56,10.27"/>
    <line class="cls-1" x1="477.01" y1="254.62" x2="452.83" y2="273.67"/>
    <line class="cls-1" x1="465.19" y1="278.52" x2="478.17" y2="255.83"/>
    <line class="cls-1" x1="482.77" y1="280.15" x2="480.74" y2="257.37"/>
    <line class="cls-1" x1="485.48" y1="259.17" x2="500.16" y2="276.57"/>
    <path class="cls-1" d="M476.15,254.11s5.62,4.46,9.84,5.27"/>
  </g>
  <line class="cls-1" x1="69.73" y1="182.98" x2="296.57" y2="96.59"/>
  <path class="cls-1" d="M157.29,277.47s62.05,83.67,223.51,44.86"/>
</svg>