<?xml version="1.0" encoding="UTF-8"?>
<svg id="Second_floor" data-name="Second floor" xmlns="http://www.w3.org/2000/svg" viewBox="0 0 714.12 338.39">
  <defs>
    <style>
      .cls-1 {
        fill: none;
        stroke: #fff;
        stroke-miterlimit: 10;
      }

      .cls-2 {
        fill: #ed254e;
        opacity: .2;
      }
    </style>
  </defs>
  <polygon class="cls-2" points="458.1 168.48 631.81 101.28 713.3 201.95 539.59 269.15 458.1 168.48"/>
  <g>
    <path class="cls-1" d="M370.86,202.22l7.34-2.84"/>
    <polyline class="cls-1" points="120.3 251.05 149.96 287.68 82.32 313.85 .82 213.17 68.46 187 100.56 226.66"/>
    <polyline class="cls-1" points="385.39 196.61 378.2 199.39 296.7 98.71 550.31 .6 631.81 101.28 427.66 180.25"/>
    <polyline class="cls-1" points="460.05 170.89 458.09 168.47 631.81 101.27 713.3 201.95 539.59 269.15 483.33 199.65"/>
    <line class="cls-1" x1="459.69" y1="300.05" x2="419.69" y2="250.64"/>
    <polyline class="cls-1" points="427.66 180.25 458.1 168.48 460.05 170.89"/>
    <line class="cls-1" x1="378.2" y1="199.39" x2="385.39" y2="196.61"/>
    <line class="cls-1" x1="370.86" y1="202.22" x2="378.2" y2="199.39"/>
    <line class="cls-1" x1="149.96" y1="287.68" x2="328.59" y2="218.58"/>
    <polygon class="cls-1" points="506.28 228.93 509.92 233.42 477.47 245.98 473.83 241.49 506.28 228.93"/>
    <polygon class="cls-1" points="502.65 224.44 506.28 228.93 473.83 241.49 470.2 237 502.65 224.44"/>
    <polygon class="cls-1" points="499.01 219.95 502.65 224.44 470.2 237 466.56 232.51 499.01 219.95"/>
    <polygon class="cls-1" points="517.19 242.4 520.82 246.89 486.56 257.22 484.73 254.96 517.19 242.4"/>
    <polygon class="cls-1" points="513.55 237.91 517.19 242.4 484.73 254.96 481.1 250.47 513.55 237.91"/>
    <polygon class="cls-1" points="509.92 233.42 513.55 237.91 481.1 250.47 477.47 245.98 509.92 233.42"/>
    <path class="cls-1" d="M502.97,283.31c-.09.03-.17.07-.26.1"/>
    <path class="cls-1" d="M519.02,244.66c11,13.59,3.81,30.85-16.05,38.65"/>
    <line class="cls-1" x1="486.76" y1="257.99" x2="523.65" y2="253.83"/>
    <line class="cls-1" x1="523.4" y1="263.74" x2="487.7" y2="259.32"/>
    <line class="cls-1" x1="516.33" y1="275.03" x2="488.33" y2="261.67"/>
    <line class="cls-1" x1="488.16" y1="265.44" x2="502.71" y2="283.41"/>
    <path class="cls-1" d="M486.56,257.22s2.76,5.71,1.59,8.64"/>
    <polygon class="cls-1" points="393.29 260.85 387.3 263.17 374.06 241.99 377.07 240.82 393.29 260.85"/>
    <path class="cls-1" d="M387.03,263.27c-18.11,7.01-38.14.85-48.22-11.4"/>
    <line class="cls-1" x1="373.03" y1="242.12" x2="378.21" y2="265.59"/>
    <line class="cls-1" x1="364.57" y1="265.94" x2="371.25" y2="242.72"/>
    <line class="cls-1" x1="350.13" y1="260.72" x2="368.14" y2="243.14"/>
    <line class="cls-1" x1="363.16" y1="243.08" x2="339.2" y2="252.35"/>
    <path class="cls-1" d="M374.06,241.99s-7.59,1.79-11.45,1.1"/>
    <polygon class="cls-1" points="430.06 258.42 433.69 262.91 466.15 250.36 462.51 245.87 430.06 258.42"/>
    <polygon class="cls-1" points="426.43 253.93 430.06 258.42 462.51 245.87 458.88 241.38 426.43 253.93"/>
    <polygon class="cls-1" points="422.79 249.44 426.43 253.93 458.88 241.38 455.24 236.89 422.79 249.44"/>
    <polygon class="cls-1" points="440.96 271.89 444.6 276.38 475.24 261.59 473.41 259.34 440.96 271.89"/>
    <polygon class="cls-1" points="437.33 267.4 440.96 271.89 473.41 259.34 469.78 254.85 437.33 267.4"/>
    <polygon class="cls-1" points="433.69 262.91 437.33 267.4 469.78 254.85 466.15 250.36 433.69 262.91"/>
    <polygon class="cls-1" points="406.48 255.75 413.08 253.2 396.82 233.12 390.22 235.67 406.48 255.75"/>
    <polygon class="cls-1" points="399.88 258.3 406.48 255.75 390.22 235.67 383.63 238.22 399.88 258.3"/>
    <polygon class="cls-1" points="393.29 260.85 399.88 258.3 383.63 238.22 377.03 240.77 393.29 260.85"/>
    <polygon class="cls-1" points="413.08 253.2 419.68 250.65 403.42 230.56 396.82 233.12 413.08 253.2"/>
    <path class="cls-1" d="M442.79,274.15c11,13.59,36.04,18.38,56.05,10.76"/>
    <line class="cls-1" x1="476.1" y1="262.12" x2="451.68" y2="281.67"/>
    <line class="cls-1" x1="464.02" y1="286.71" x2="477.25" y2="263.37"/>
    <line class="cls-1" x1="481.64" y1="288.45" x2="479.81" y2="264.97"/>
    <line class="cls-1" x1="484.55" y1="266.84" x2="499.1" y2="284.81"/>
    <path class="cls-1" d="M475.24,261.59s5.59,4.61,9.82,5.46"/>
    <line class="cls-1" x1="68.46" y1="187" x2="296.7" y2="98.71"/>
    <line class="cls-1" x1="499.01" y1="219.95" x2="403.44" y2="230.56"/>
    <polyline class="cls-1" points="393.27 260.86 377.01 240.78 403.44 230.56"/>
    <line class="cls-1" x1="322.56" y1="261.84" x2="381.51" y2="329.68"/>
    <line class="cls-1" x1="459.69" y1="300.05" x2="539.59" y2="269.15"/>
    <path class="cls-1" d="M157.27,282.75s62.05,83.67,223.51,44.86"/>
  </g>
</svg>