<?xml version="1.0" encoding="UTF-8"?>
<svg id="Attic" xmlns="http://www.w3.org/2000/svg" viewBox="0 0 444.61 268.57">
  <defs>
    <style>
      .cls-1 {
        fill: none;
        stroke: #fff;
        stroke-miterlimit: 10;
      }

      .cls-2 {
        fill: #ed254e;
        opacity: .2;
      }
    </style>
  </defs>
  <polyline class="cls-2" points="401.41 96.2 320.32 0 90.69 89.11 0 123.74 81.1 219.94 115.33 207.22 156.68 256.28 213.14 234.37 214.98 236.56 444.61 147.44 401.41 96.2"/>
  <polyline class="cls-1" points="92.53 91.3 322.16 2.18 403.25 98.38"/>
  <polyline class="cls-1" points="362.51 49.69 443.6 145.88 268.52 213.88 228.72 166.67 212.1 173.23"/>
  <polyline class="cls-1" points="213.97 235 174.24 187.86 189.98 181.76"/>
  <polyline class="cls-1" points="173.62 187.49 214.98 236.56 158.52 258.47 117.17 209.4"/>
  <line class="cls-1" x1="82.94" y1="222.13" x2="117.17" y2="209.41"/>
  <path class="cls-1" d="M293.9,268.48c-.08.03-.16.06-.23.09"/>
  <polygon class="cls-1" points="191 245.75 185.59 247.85 172.14 227.67 174.87 226.61 191 245.75"/>
  <path class="cls-1" d="M185.34,247.95c-16.4,6.36-35.3.28-45.32-11.44"/>
  <line class="cls-1" x1="171.19" y1="227.78" x2="177.29" y2="250.01"/>
  <line class="cls-1" x1="164.67" y1="250.15" x2="169.58" y2="228.32"/>
  <line class="cls-1" x1="150.99" y1="245.02" x2="166.72" y2="228.67"/>
  <line class="cls-1" x1="162.1" y1="228.55" x2="140.4" y2="236.97"/>
  <path class="cls-1" d="M172.14,227.67s-6.93,1.58-10.55.88"/>
  <polygon class="cls-1" points="202.95 241.11 208.92 238.8 192.75 219.61 186.77 221.92 202.95 241.11"/>
  <polygon class="cls-1" points="196.98 243.43 202.95 241.11 186.77 221.92 180.8 224.24 196.98 243.43"/>
  <polygon class="cls-1" points="191 245.75 196.98 243.43 180.8 224.24 174.83 226.56 191 245.75"/>
  <polygon class="cls-1" points="208.92 238.8 214.9 236.48 198.72 217.29 192.75 219.61 208.92 238.8"/>
  <line class="cls-1" x1="1.84" y1="125.93" x2="92.53" y2="91.3"/>
  <polyline class="cls-1" points="190.99 245.76 174.81 226.57 198.74 217.28"/>
  <polygon class="cls-1" points="133.28 228.39 136.9 232.68 158.13 224.44 154.51 220.15 133.28 228.39"/>
  <polygon class="cls-1" points="129.67 224.1 133.28 228.39 154.51 220.15 150.9 215.86 129.67 224.1"/>
  <polygon class="cls-1" points="136.9 232.68 140.51 236.97 161.75 228.73 158.13 224.44 136.9 232.68"/>
  <line class="cls-1" x1="214.98" y1="236.56" x2="268.52" y2="213.88"/>
  <line class="cls-1" x1="1.84" y1="125.93" x2="82.94" y2="222.13"/>
  <polyline class="cls-1" points="124.43 124.81 141.78 145.39 48.34 181.08 1.84 125.93 95.28 90.23 108.11 105.45"/>
</svg>