<?xml version="1.0" encoding="UTF-8"?>
<svg id="Ground_floor" data-name="Ground floor" xmlns="http://www.w3.org/2000/svg" viewBox="0 0 853.5 447.46">
  <defs>
    <style>
      .cls-1 {
        fill: none;
      }

      .cls-1, .cls-2 {
        stroke: #fff;
        stroke-miterlimit: 10;
      }

      .cls-2 {
        fill: #ed254e;
        opacity: .3;
      }
    </style>
  </defs>
  <path class="cls-2" d="M558.53,196.82l-26.37-31.18-78.9,29.97-85.17-100.71L76.07,206.17l86.3,99.8,70.18-26.69c60,66.44,160.91,70.77,296.68,22.14l28.48,16.19,76.08-26.46-19.89-23.52,3.42-2.88-58.79-67.94Z"/>
  <path class="cls-1" d="M443.24,199.19c4.6-1.75,7.25-2.75,7.25-2.75"/>
  <polyline class="cls-1" points="200.75 253.28 225.08 282.06 158.29 307.43 73.12 206.72 139.91 181.35 164.25 210.12"/>
  <polyline class="cls-1" points="457.58 193.74 450.48 196.44 365.31 95.73 615.76 .59 700.93 101.3 499.32 177.89"/>
  <polyline class="cls-1" points="531.42 168.88 529.38 166.46 700.93 101.3 786.09 202 614.55 267.16 555.75 197.65"/>
  <line class="cls-1" x1="535.65" y1="297.14" x2="476.85" y2="227.62"/>
  <polyline class="cls-1" points="578.38 280.9 614.55 267.17 555.75 197.65"/>
  <polyline class="cls-1" points="499.32 177.89 529.38 166.47 531.42 168.88"/>
  <line class="cls-1" x1="450.48" y1="196.44" x2="457.58" y2="193.74"/>
  <polyline class="cls-1" points="450.11 237.78 476.85 227.62 535.65 297.14 455.78 327.48 396.98 257.96 408.37 253.63"/>
  <line class="cls-1" x1="443.24" y1="199.19" x2="450.48" y2="196.44"/>
  <line class="cls-1" x1="225.08" y1="282.06" x2="401.49" y2="215.05"/>
  <polyline class="cls-1" points="578.38 280.9 591.58 275.89 611.47 299.41 555.54 320.66 535.65 297.14"/>
  <polygon class="cls-1" points="617.99 296.94 611.47 299.41 591.58 275.89 598.1 273.41 617.99 296.94"/>
  <polygon class="cls-1" points="624.5 294.46 617.99 296.94 598.1 273.41 604.61 270.94 624.5 294.46"/>
  <polygon class="cls-1" points="631.02 291.99 624.5 294.46 604.61 270.94 611.13 268.46 631.02 291.99"/>
  <polygon class="cls-1" points="579.77 226.93 583.57 231.42 551.52 243.6 547.73 239.11 579.77 226.93"/>
  <polygon class="cls-1" points="575.98 222.44 579.77 226.93 547.73 239.11 543.93 234.62 575.98 222.44"/>
  <polygon class="cls-1" points="572.18 217.95 575.98 222.44 543.93 234.62 540.13 230.13 572.18 217.95"/>
  <polygon class="cls-1" points="591.17 240.41 594.97 244.9 561.03 254.84 559.12 252.58 591.17 240.41"/>
  <polygon class="cls-1" points="587.37 235.92 591.17 240.41 559.12 252.58 555.32 248.09 587.37 235.92"/>
  <polygon class="cls-1" points="583.57 231.42 587.37 235.92 555.32 248.09 551.52 243.6 583.57 231.42"/>
  <path class="cls-1" d="M578.38,280.9c-.08.03-.17.07-.26.1"/>
  <path class="cls-1" d="M593.08,242.67c11.49,13.59,4.91,30.66-14.7,38.24"/>
  <line class="cls-1" x1="561.26" y1="255.62" x2="598.04" y2="251.81"/>
  <line class="cls-1" x1="598.15" y1="261.65" x2="562.24" y2="256.94"/>
  <line class="cls-1" x1="591.47" y1="272.8" x2="562.96" y2="259.28"/>
  <line class="cls-1" x1="562.92" y1="263.02" x2="578.13" y2="281"/>
  <path class="cls-1" d="M561.03,254.84s2.97,5.69,1.9,8.59"/>
  <path class="cls-1" d="M826.33,249.58c54.45,64.39,22.87,145.35-70.54,180.83-45.96,17.46-98.32,20.65-146.15,11.73"/>
  <line class="cls-1" x1=".09" y1="329.51" x2="609.65" y2="442.12"/>
  <polyline class="cls-1" points="73.12 206.72 365.31 95.73 139.91 181.35"/>
  <path class="cls-1" d="M229.57,280.35s62.05,83.67,223.51,44.86"/>
</svg>