<?xml version="1.0" encoding="UTF-8"?>
<svg id="house" xmlns="http://www.w3.org/2000/svg" viewBox="0 0 854.68 872.08">
  <defs>
    <style>
      .cls-1 {
        fill: none;
        stroke: #ba913f;
        stroke-miterlimit: 10;
        stroke-width: 3px;
      }
    </style>
  </defs>
  <line class="cls-1" x1="159.78" y1="449.29" x2="159.78" y2="730.42"/>
  <line class="cls-1" x1="150.35" y1="463.08" x2="150.35" y2="533.58"/>
  <line class="cls-1" x1="133.85" y1="444.57" x2="133.85" y2="515.07"/>
  <line class="cls-1" x1="117.35" y1="424.84" x2="117.35" y2="495.35"/>
  <line class="cls-1" x1="100.85" y1="406.49" x2="100.85" y2="477"/>
  <line class="cls-1" x1="84.34" y1="387.82" x2="84.34" y2="458.32"/>
  <line class="cls-1" x1="229.75" y1="423.07" x2="229.75" y2="704.2"/>
  <line class="cls-1" x1="72.8" y1="349.79" x2="72.8" y2="630.04"/>
  <line class="cls-1" x1="159.78" y1="449.29" x2="229.96" y2="423.54"/>
  <line class="cls-1" x1="159.78" y1="575.71" x2="229.96" y2="549.96"/>
  <line class="cls-1" x1="186.8" y1="582.44" x2="220.79" y2="570.27"/>
  <line class="cls-1" x1="186.8" y1="648.93" x2="220.44" y2="637.01"/>
  <line class="cls-1" x1="159.78" y1="729.48" x2="229.96" y2="703.73"/>
  <line class="cls-1" x1="72.8" y1="349.79" x2="139.27" y2="325.4"/>
  <line class="cls-1" x1="71.67" y1="348.92" x2="159.78" y2="449.29"/>
  <line class="cls-1" x1="72.8" y1="476.43" x2="159.78" y2="575.51"/>
  <line class="cls-1" x1="84.34" y1="458.32" x2="150.35" y2="533.58"/>
  <line class="cls-1" x1="84.34" y1="387.82" x2="150.35" y2="463.08"/>
  <line class="cls-1" x1="199.85" y1="305.06" x2="199.85" y2="390.32"/>
  <line class="cls-1" x1="183.35" y1="285.34" x2="183.35" y2="373.1"/>
  <line class="cls-1" x1="166.85" y1="266.99" x2="166.85" y2="355.84"/>
  <line class="cls-1" x1="166.85" y1="266.99" x2="199.85" y2="305.06"/>
  <line class="cls-1" x1="150.35" y1="586.11" x2="150.35" y2="656.62"/>
  <line class="cls-1" x1="133.85" y1="567.6" x2="133.85" y2="638.11"/>
  <line class="cls-1" x1="117.35" y1="547.88" x2="117.35" y2="618.38"/>
  <line class="cls-1" x1="100.85" y1="529.53" x2="100.85" y2="600.03"/>
  <line class="cls-1" x1="84.34" y1="510.85" x2="84.34" y2="581.36"/>
  <line class="cls-1" x1="84.34" y1="581.36" x2="150.35" y2="656.62"/>
  <line class="cls-1" x1="84.34" y1="510.85" x2="150.35" y2="586.11"/>
  <line class="cls-1" x1="71.67" y1="630.04" x2="159.78" y2="730.42"/>
  <line class="cls-1" x1="118.06" y1="302.46" x2="229.96" y2="423.54"/>
  <line class="cls-1" x1="137.97" y1="147.82" x2="265.06" y2="285.34"/>
  <line class="cls-1" x1="549.31" y1="67.16" x2="755.12" y2="224.66"/>
  <line class="cls-1" x1="372.26" y1="3.12" x2="484.9" y2="97.21"/>
  <line class="cls-1" x1="241.78" y1="158.93" x2="271.41" y2="186.32"/>
  <line class="cls-1" x1="283.62" y1="114.88" x2="313.25" y2="142.26"/>
  <line class="cls-1" x1="659.27" y1="402.31" x2="789.4" y2="350.87"/>
  <line class="cls-1" x1="765.12" y1="383.78" x2="782.05" y2="377.08"/>
  <line class="cls-1" x1="765.28" y1="460.89" x2="782.05" y2="454.26"/>
  <line class="cls-1" x1="526.65" y1="725.87" x2="526.65" y2="363.98"/>
  <line class="cls-1" x1="547.39" y1="380.5" x2="547.39" y2="715.99"/>
  <path class="cls-1" d="M526.65,445.51c-32.74,20.05-105.68,34.68-157.86,34.68-71.22,0-110.82-22.65-139.7-56.56"/>
  <path class="cls-1" d="M414.47,556.21c-15.76,1.71-31.35,2.6-45.68,2.6-26.23,0-48.16-3.07-66.86-8.64"/>
  <path class="cls-1" d="M467,298.89c-22.77,11.62-71.57,16.38-107.85,16.38-49.52,0-77.05-13.12-97.13-32.77"/>
  <path class="cls-1" d="M398.35,355.92c-13.5,1.15-27.05,1.68-39.2,1.68-13.48,0-25.34-.97-35.86-2.79"/>
  <path class="cls-1" d="M398.37,434.88c-15.17,1.47-30.62,2.14-44.3,2.14-11.34,0-21.53-.69-30.74-1.99"/>
  <path class="cls-1" d="M526.65,573.06c-32.74,20.05-105.68,30.93-157.86,30.93-71.22,0-110.82-22.65-139.7-56.56"/>
  <path class="cls-1" d="M527.02,724.34c-32.74,20.05-106.05,34.35-158.24,34.35-71.22,0-110.82-22.65-139.7-56.56"/>
  <line class="cls-1" x1="755.22" y1="221.27" x2="466.5" y2="299.06"/>
  <line class="cls-1" x1="658.61" y1="536.9" x2="733.37" y2="508.55"/>
  <line class="cls-1" x1="159.78" y1="702.14" x2="229.96" y2="676.39"/>
  <line class="cls-1" x1="71.67" y1="601.56" x2="159.78" y2="701.94"/>
  <path class="cls-1" d="M527.02,696.06c-32.74,20.05-106.05,34.35-158.24,34.35-71.22,0-110.82-22.65-139.7-56.56"/>
  <line class="cls-1" x1="658.61" y1="654.25" x2="789.4" y2="604.66"/>
  <line class="cls-1" x1="658.61" y1="674.79" x2="789.4" y2="625.2"/>
  <line class="cls-1" x1="578.25" y1="755.21" x2="709.05" y2="705.62"/>
  <line class="cls-1" x1="578.25" y1="733.83" x2="677.07" y2="696.36"/>
  <line class="cls-1" x1="563.99" y1="584.13" x2="639.43" y2="555.53"/>
  <line class="cls-1" x1="592.51" y1="630.65" x2="699.37" y2="590.13"/>
  <line class="cls-1" x1="547.36" y1="380.41" x2="658.61" y2="338.23"/>
  <line class="cls-1" x1="586.97" y1="557.17" x2="619.01" y2="545.02"/>
  <line class="cls-1" x1="586.97" y1="489.54" x2="619.01" y2="477.39"/>
  <line class="cls-1" x1="658.61" y1="605.59" x2="658.61" y2="674.79"/>
  <line class="cls-1" x1="658.61" y1="338.23" x2="658.61" y2="566.6"/>
  <line class="cls-1" x1="547.47" y1="380.5" x2="603.52" y2="302.62"/>
  <line class="cls-1" x1="329.51" y1="313.13" x2="484.9" y2="97.21"/>
  <line class="cls-1" x1="658.61" y1="338.23" x2="603.52" y2="302.62"/>
  <line class="cls-1" x1="638.06" y1="321.57" x2="582.98" y2="285.96"/>
  <line class="cls-1" x1="526.8" y1="363.98" x2="582.78" y2="286.59"/>
  <line class="cls-1" x1="789.4" y1="350.87" x2="789.4" y2="625.2"/>
  <line class="cls-1" x1="547.39" y1="380.5" x2="526.65" y2="363.98"/>
  <line class="cls-1" x1="603.92" y1="302.87" x2="582.78" y2="286.59"/>
  <line class="cls-1" x1="789.4" y1="350.87" x2="763.98" y2="318.88"/>
  <rect class="cls-1" x="342.17" y="622.12" width="60.48" height="80.02"/>
  <line class="cls-1" x1="186.8" y1="582.44" x2="186.8" y2="648.93"/>
  <line class="cls-1" x1="203.62" y1="576.45" x2="203.62" y2="642.94"/>
  <line class="cls-1" x1="220.44" y1="570.19" x2="220.44" y2="636.68"/>
  <line class="cls-1" x1="186.8" y1="467.09" x2="220.79" y2="454.92"/>
  <line class="cls-1" x1="186.8" y1="533.58" x2="220.44" y2="521.66"/>
  <line class="cls-1" x1="186.8" y1="467.09" x2="186.8" y2="533.58"/>
  <line class="cls-1" x1="203.62" y1="461.1" x2="203.62" y2="527.6"/>
  <line class="cls-1" x1="220.44" y1="454.84" x2="220.44" y2="521.33"/>
  <line class="cls-1" x1="301.93" y1="550.16" x2="301.93" y2="471.55"/>
  <line class="cls-1" x1="414.47" y1="556.21" x2="414.47" y2="477.59"/>
  <line class="cls-1" x1="376.96" y1="558.54" x2="376.96" y2="479.99"/>
  <line class="cls-1" x1="339.45" y1="479.03" x2="339.45" y2="557.65"/>
  <line class="cls-1" x1="323.35" y1="433.11" x2="323.35" y2="354.49"/>
  <line class="cls-1" x1="398.38" y1="434.84" x2="398.38" y2="356.29"/>
  <line class="cls-1" x1="360.86" y1="357.6" x2="360.86" y2="436.21"/>
  <path class="cls-1" d="M754.83,221.03s-9.63,51.5,9.14,97.84"/>
  <path class="cls-1" d="M138.62,147.09h0s19.22,136.99-21.28,155.37"/>
  <line class="cls-1" x1="586.97" y1="489.54" x2="586.97" y2="557.84"/>
  <line class="cls-1" x1="510.63" y1="533.69" x2="526.65" y2="527.62"/>
  <line class="cls-1" x1="510.63" y1="466.07" x2="526.65" y2="459.99"/>
  <line class="cls-1" x1="510.63" y1="466.07" x2="510.63" y2="534.37"/>
  <line class="cls-1" x1="510.63" y1="667.52" x2="526.65" y2="661.44"/>
  <line class="cls-1" x1="510.63" y1="599.89" x2="526.65" y2="593.81"/>
  <line class="cls-1" x1="510.63" y1="599.89" x2="510.63" y2="668.19"/>
  <line class="cls-1" x1="603.52" y1="483.47" x2="603.52" y2="550.82"/>
  <line class="cls-1" x1="619.03" y1="477.39" x2="619.03" y2="545.08"/>
  <line class="cls-1" x1="583.98" y1="698.02" x2="635.59" y2="680.39"/>
  <line class="cls-1" x1="583.98" y1="625.93" x2="583.98" y2="698.99"/>
  <line class="cls-1" x1="635.63" y1="614.3" x2="635.63" y2="680.47"/>
  <line class="cls-1" x1="586.97" y1="451.86" x2="619.01" y2="439.71"/>
  <line class="cls-1" x1="586.97" y1="384.23" x2="619.01" y2="372.08"/>
  <line class="cls-1" x1="586.97" y1="384.23" x2="586.97" y2="452.53"/>
  <line class="cls-1" x1="603.52" y1="378.15" x2="603.52" y2="445.51"/>
  <line class="cls-1" x1="619.03" y1="372.08" x2="619.03" y2="439.76"/>
  <line class="cls-1" x1="510.76" y1="337.03" x2="510.76" y2="380.31"/>
  <line class="cls-1" x1="526.52" y1="327.28" x2="526.52" y2="370.56"/>
  <line class="cls-1" x1="526.52" y1="327.73" x2="510.76" y2="337.03"/>
  <line class="cls-1" x1="526.52" y1="371.01" x2="510.76" y2="380.31"/>
  <ellipse class="cls-1" cx="760.11" cy="547.92" rx="9.14" ry="19.49"/>
  <line class="cls-1" x1="117.35" y1="301.54" x2="117.35" y2="333.45"/>
  <line class="cls-1" x1="658.61" y1="338.23" x2="636.28" y2="320.42"/>
  <path class="cls-1" d="M615.29,343.49c-1.55-9.84-9.05-15.48-16.6-12.65-7.4,2.78-12.08,12.68-10.59,22.16l27.19-9.51Z"/>
  <line class="cls-1" x1="138.62" y1="147.09" x2="373.77" y2="1.4"/>
  <line class="cls-1" x1="241.82" y1="158.97" x2="284.36" y2="115.21"/>
  <line class="cls-1" x1="271.35" y1="186.02" x2="313.89" y2="142.26"/>
  <line class="cls-1" x1="592.51" y1="630.65" x2="563.99" y2="584.13"/>
  <line class="cls-1" x1="546.26" y1="605.02" x2="563.99" y2="584.13"/>
  <line class="cls-1" x1="592.51" y1="630.65" x2="546.26" y2="605.02"/>
  <line class="cls-1" x1="639.43" y1="555.53" x2="699.37" y2="590.13"/>
  <line class="cls-1" x1="526.65" y1="725.87" x2="578.25" y2="755.21"/>
  <line class="cls-1" x1="527.4" y1="704.63" x2="579.01" y2="733.96"/>
  <line class="cls-1" x1="733.63" y1="509.23" x2="759.86" y2="514.65"/>
  <line class="cls-1" x1="759.86" y1="514.65" x2="785.78" y2="503.34"/>
  <line class="cls-1" x1="785.78" y1="503.34" x2="789.4" y2="487.31"/>
  <line class="cls-1" x1="765.34" y1="460.5" x2="765.34" y2="383.33"/>
  <line class="cls-1" x1="759.7" y1="363.85" x2="759.7" y2="514.65"/>
  <line class="cls-1" x1="785.78" y1="352.3" x2="785.78" y2="503.34"/>
  <line class="cls-1" x1="782.02" y1="377" x2="782.02" y2="454.18"/>
  <line class="cls-1" x1="733.63" y1="509.23" x2="733.63" y2="373.95"/>
  <line class="cls-1" x1="754.83" y1="221.03" x2="484.9" y2="97.21"/>
  <line class="cls-1" x1="373.77" y1="1.4" x2="549.31" y2="67.16"/>
  <path class="cls-1" d="M826.51,673.2c54.45,64.39,22.87,145.35-70.54,180.83-45.96,17.46-98.32,20.65-146.15,11.73"/>
  <line class="cls-1" x1=".27" y1="753.13" x2="609.83" y2="865.74"/>
</svg>